<?xml version="1.0" standalone="no"?>
<!DOCTYPE svg PUBLIC "-//W3C//DTD SVG 20010904//EN"
 "http://www.w3.org/TR/2001/REC-SVG-20010904/DTD/svg10.dtd">
<svg version="1.0" xmlns="http://www.w3.org/2000/svg"
 width="715.000000pt" height="715.000000pt" viewBox="0 0 715.000000 715.000000"
 preserveAspectRatio="xMidYMid meet">
<metadata>
Created by potrace 1.14, written by Peter Selinger 2001-2017
</metadata>
<g transform="translate(0.000000,715.000000) scale(0.100000,-0.100000)"
fill="#000000" stroke="none">
<path d="M4126 6748 c-36 -8 -190 -71 -596 -245 -96 -41 -272 -115 -390 -165
-118 -49 -233 -100 -256 -113 -47 -28 -95 -71 -489 -445 -159 -152 -374 -355
-476 -450 -837 -788 -817 -768 -834 -815 -25 -64 -16 -135 22 -183 42 -54 106
-84 165 -79 55 5 92 28 197 122 39 36 74 65 76 65 3 0 5 -150 5 -333 l0 -332
-153 -69 c-669 -303 -1167 -593 -1244 -723 -30 -52 -42 -154 -24 -219 16 -60
62 -118 113 -142 47 -21 270 -92 593 -186 396 -115 646 -206 863 -315 170 -84
276 -164 398 -299 114 -125 155 -156 230 -173 59 -13 68 -12 259 41 86 23 169
25 322 5 231 -30 526 -111 848 -230 83 -31 192 -72 243 -91 54 -20 111 -34
137 -34 48 0 90 20 375 177 245 136 447 246 635 348 648 351 1082 584 1365
735 378 201 423 229 450 272 70 115 39 263 -68 333 -71 46 -832 292 -1129 365
l-133 32 0 272 c0 149 4 276 8 282 4 6 88 52 187 103 201 104 240 131 272 187
30 51 31 139 4 193 -11 21 -97 127 -191 237 -95 109 -305 354 -468 544 -163
190 -357 414 -432 499 -137 157 -225 259 -495 572 -82 95 -161 184 -175 197
-54 50 -144 76 -214 60z m214 -1120 c0 -227 -4 -367 -11 -393 -15 -54 -77
-115 -117 -115 -25 0 -43 12 -86 56 -30 31 -67 74 -81 94 l-26 38 0 307 c0
169 2 310 5 312 2 2 26 0 53 -5 57 -10 135 3 203 35 25 12 48 22 53 22 4 1 7
-158 7 -351z m-1174 125 c78 -98 524 -645 899 -1103 110 -135 216 -265 234
-289 l34 -43 -39 -76 -39 -77 -3 -777 c-2 -535 1 -790 8 -818 13 -48 59 -103
100 -120 67 -28 111 -12 411 147 156 83 388 206 514 273 127 67 245 133 264
147 39 30 81 113 81 161 0 27 3 32 18 28 9 -2 53 -14 98 -25 191 -48 611 -185
632 -206 7 -7 14 -3 -173 -100 -93 -49 -282 -149 -420 -223 -137 -74 -342
-184 -455 -245 -301 -161 -841 -457 -1023 -559 -108 -61 -169 -90 -190 -90
-18 0 -88 22 -157 50 -295 117 -650 214 -938 258 l-113 17 63 36 c35 19 193
98 353 174 159 76 308 152 331 168 27 18 51 47 68 81 l26 52 0 635 0 636 -24
51 c-27 58 -73 97 -131 113 -109 29 -990 153 -1051 149 -62 -5 -107 -35 -134
-88 -19 -37 -20 -61 -20 -470 0 -403 -1 -430 -17 -430 -10 0 -119 17 -241 39
-145 24 -227 43 -233 52 -6 8 -8 295 -6 714 4 821 1 787 94 875 32 30 162 154
288 275 377 360 616 588 680 648 50 47 66 56 96 57 35 0 42 -6 115 -97z m2124
-2113 c0 -186 -3 -346 -6 -355 -4 -9 -61 -43 -128 -77 -66 -33 -214 -109 -328
-169 -114 -60 -212 -109 -218 -109 -7 0 -10 166 -9 513 l0 512 27 -35 c88
-112 150 -148 234 -137 21 3 121 49 225 105 103 55 191 98 195 96 4 -3 8 -158
8 -344z m-2329 135 c234 -31 396 -54 427 -60 l22 -5 0 -480 0 -480 -50 -25
c-27 -14 -56 -25 -63 -25 -8 0 -47 30 -88 68 -132 120 -253 204 -409 282 -36
18 -68 38 -72 44 -4 6 -8 167 -8 359 l0 347 23 0 c13 0 111 -11 218 -25z
m-1409 -562 c4 -164 11 -187 73 -241 45 -40 77 -48 455 -117 345 -63 425 -84
545 -145 93 -48 305 -187 305 -200 0 -5 -39 -35 -87 -67 -108 -72 -237 -193
-316 -297 l-60 -78 -44 6 c-40 5 -57 17 -151 107 -256 245 -542 391 -1097 562
-208 65 -468 137 -490 137 -47 0 20 47 260 180 134 75 580 300 595 300 4 0 10
-66 12 -147z"/>
<path d="M2956 5198 c-12 -16 -16 -47 -16 -107 l0 -84 -87 7 c-120 10 -127 4
-131 -106 -3 -72 -1 -86 17 -110 18 -22 31 -27 89 -33 122 -11 112 -1 112
-116 0 -98 1 -101 29 -130 25 -25 38 -29 88 -31 145 -4 151 1 155 131 l3 96
83 -4 c121 -5 132 5 132 112 0 110 -11 122 -130 136 -46 6 -86 11 -87 11 -2 0
-3 41 -2 90 2 138 -20 160 -161 160 -70 0 -81 -2 -94 -22z"/>
<path d="M2831 3682 c-6 -12 -11 -52 -11 -90 0 -86 12 -99 101 -108 100 -10
109 -2 109 96 0 96 -9 105 -117 115 -65 6 -72 5 -82 -13z"/>
<path d="M3117 3645 c-4 -9 -7 -48 -7 -86 0 -89 14 -104 101 -113 75 -8 97 -2
110 31 16 43 11 128 -9 154 -16 19 -31 23 -104 27 -73 4 -86 2 -91 -13z"/>
<path d="M2832 3393 c-3 -10 -7 -49 -7 -86 0 -60 3 -71 24 -88 30 -24 161 -28
181 -4 16 19 24 85 16 130 -9 47 -49 65 -141 65 -53 0 -67 -3 -73 -17z"/>
<path d="M6720 2506 c-19 -7 -208 -107 -420 -223 -212 -116 -479 -261 -595
-323 -115 -62 -372 -201 -570 -308 -198 -107 -414 -224 -480 -260 -373 -200
-394 -214 -450 -302 -84 -131 -102 -133 -390 -41 -121 38 -240 76 -265 85 -25
8 -142 45 -260 81 -577 179 -2708 898 -2903 980 -99 41 -129 41 -188 2 -106
-70 -98 -277 13 -357 29 -21 430 -159 1511 -519 2442 -812 2297 -766 2402
-766 113 0 59 -26 895 425 877 472 1415 761 1645 884 280 149 325 202 325 380
0 90 -21 149 -68 199 -55 58 -142 85 -202 63z"/>
<path d="M740 2312 c-25 -25 -30 -38 -30 -77 0 -42 5 -52 39 -86 48 -48 93
-53 139 -14 34 29 45 69 32 117 -14 49 -50 79 -104 85 -40 5 -48 2 -76 -25z
m105 -48 c10 -11 15 -29 13 -53 -2 -28 -8 -37 -25 -39 -27 -4 -63 30 -63 61 0
44 43 62 75 31z"/>
<path d="M997 2259 c-8 -13 -22 -60 -31 -103 -14 -70 -15 -82 -2 -94 19 -19
46 -8 46 18 0 17 6 20 49 20 32 0 55 6 65 16 53 52 7 143 -81 160 -26 5 -34 2
-46 -17z m77 -55 c24 -23 20 -44 -8 -44 -30 0 -40 13 -31 40 8 24 18 25 39 4z"/>
<path d="M1207 2193 c-15 -25 -38 -135 -35 -167 4 -48 36 -75 97 -83 42 -6 43
-5 39 23 -2 24 -9 30 -41 37 -50 12 -48 42 3 42 47 0 53 28 11 50 -40 20 -43
50 -3 40 50 -14 67 -11 67 10 0 13 -12 26 -35 37 -36 18 -95 24 -103 11z"/>
<path d="M1430 2115 c-12 -15 -30 -112 -30 -167 0 -26 6 -40 19 -47 24 -13 38
2 49 55 l8 39 23 -62 c51 -138 115 -121 128 35 4 55 2 70 -11 81 -28 23 -46 6
-46 -44 0 -25 -4 -45 -9 -45 -4 0 -23 33 -40 74 -34 78 -68 108 -91 81z"/>
<path d="M2674 1651 c-34 -15 -54 -51 -54 -97 0 -35 5 -47 35 -73 40 -35 103
-43 125 -16 17 21 -4 45 -40 45 -29 0 -60 27 -60 52 0 28 27 40 69 33 47 -8
62 8 34 36 -22 23 -79 33 -109 20z"/>
<path d="M2877 1613 c-2 -4 -8 -46 -11 -93 -6 -66 -4 -89 7 -104 19 -26 47
-14 47 19 0 23 4 25 40 25 l40 0 0 -45 c0 -32 5 -47 15 -51 30 -12 43 15 50
107 8 95 0 119 -36 119 -15 0 -19 -7 -19 -35 0 -30 -3 -35 -23 -35 -35 0 -56
21 -59 60 -2 27 -8 36 -25 38 -11 2 -23 0 -26 -5z"/>
<path d="M3168 1523 c-48 -30 -61 -88 -33 -146 55 -113 205 -84 205 38 0 89
-102 153 -172 108z m91 -69 c26 -34 27 -56 0 -80 -24 -21 -45 -13 -69 29 -11
20 -12 30 -2 51 15 34 45 33 71 0z"/>
<path d="M3422 1477 c-14 -17 -36 -171 -28 -201 6 -24 31 -41 47 -31 4 3 11
21 15 40 3 19 10 35 15 35 5 0 20 -24 34 -54 25 -53 47 -72 67 -60 13 8 1 68
-24 117 -23 45 -19 64 17 73 30 7 34 39 6 53 -15 8 -27 4 -60 -19 l-41 -30 0
35 c0 39 -29 65 -48 42z"/>
<path d="M3675 1390 c-4 -6 -11 -53 -17 -105 -9 -75 -9 -97 1 -109 19 -23 40
-20 50 7 16 41 23 174 11 196 -11 22 -35 28 -45 11z"/>
<path d="M3800 1310 c-6 -22 -10 -73 -8 -113 3 -66 5 -72 25 -75 23 -3 29 8
36 73 3 28 5 27 32 -30 35 -75 52 -95 81 -95 31 0 35 10 45 107 10 92 2 123
-31 123 -19 0 -22 -9 -33 -90 -3 -21 -8 -15 -34 38 -55 113 -94 133 -113 62z"/>
</g>
</svg>
